<?xml version="1.0" encoding="utf-8"?>
<!-- Generator: Adobe Illustrator 16.0.0, SVG Export Plug-In . SVG Version: 6.00 Build 0)  -->
<!DOCTYPE svg PUBLIC "-//W3C//DTD SVG 1.1//EN" "http://www.w3.org/Graphics/SVG/1.1/DTD/svg11.dtd">
<svg version="1.1" id="Layer_1" xmlns="http://www.w3.org/2000/svg" xmlns:xlink="http://www.w3.org/1999/xlink" x="0px" y="0px"
	 width="192px" height="192px" viewBox="0 0 192 192" enable-background="new 0 0 192 192" xml:space="preserve">
<g>
	<path fill="#FFFFFF" d="M74.249,155.296v32.688L7.25,95.824h51.541c-1.209,1.664-1.898,3.567-1.898,5.585v42.132
		c0,6.49,7.094,11.755,15.845,11.755H74.249z"/>
	<path fill="#FFFFFF" d="M186.927,95.824l-70.137,96.474v-37.002h1.498c8.75,0,15.857-5.265,15.857-11.755v-42.132
		c0-2.019-0.688-3.922-1.903-5.585H186.927z"/>
	<path fill="#FFFFFF" d="M97.093,0C44.268,0,1.469,32.024,1.469,71.514c0,8.698,2.079,17.02,5.884,24.737h0.758L7.99,96.084h51.787
		c2.712-3.587,7.885-6.008,13.821-6.008h44.258c5.937,0,11.115,2.421,13.831,6.008h54.93l-0.121,0.167h0.336
		c3.8-7.718,5.88-16.039,5.88-24.737C192.712,32.024,149.912,0,97.093,0z M95.729,80.845c-9.591,0-17.356-6.915-17.356-15.45
		c0-8.536,7.765-15.454,17.356-15.454c9.585,0,17.355,6.918,17.355,15.454C113.084,73.93,105.313,80.845,95.729,80.845z"/>
</g>
</svg>
