<?xml version="1.0" encoding="utf-8"?>
<!-- Generator: Adobe Illustrator 16.0.0, SVG Export Plug-In . SVG Version: 6.00 Build 0)  -->
<!DOCTYPE svg PUBLIC "-//W3C//DTD SVG 1.1//EN" "http://www.w3.org/Graphics/SVG/1.1/DTD/svg11.dtd">
<svg version="1.1" id="Layer_1" xmlns="http://www.w3.org/2000/svg" xmlns:xlink="http://www.w3.org/1999/xlink" x="0px" y="0px"
	 width="60.75px" height="62.75px" viewBox="0 0 60.75 62.75" enable-background="new 0 0 60.75 62.75" xml:space="preserve">
<g>
	<path fill="#FFFFFF" d="M23.555,51.052v10.333L3.318,32.382h0.167l-0.036-0.054h15.363c-0.337,0.506-0.525,1.078-0.525,1.686
		v13.319c0,2.052,2.155,3.718,4.81,3.718L23.555,51.052L23.555,51.052z"/>
	<path fill="#FFFFFF" d="M57.616,32.382h0.036L36.463,61.385V51.052h0.455c2.655,0,4.811-1.666,4.811-3.718v-13.32
		c0-0.606-0.186-1.179-0.525-1.685h16.449L57.616,32.382z"/>
	<path fill="#FFFFFF" d="M18.811,32.329h0.352c0.823-1.132,2.391-1.897,4.194-1.897h13.43c1.799,0,3.371,0.765,4.197,1.897h0.218
		 M18.863,32.246c-0.018,0.025-0.037,0.054-0.052,0.083 M3.318,32.382l-0.094-0.136 M57.715,32.382
		c1.153-2.441,1.784-5.071,1.784-7.822C59.5,12.074,46.514,1.95,30.485,1.95C14.458,1.95,1.47,12.074,1.47,24.56
		c0,2.751,0.631,5.381,1.784,7.822h0.064 M57.745,32.246l-0.095,0.136h0.064 M41.202,32.329c-0.015-0.028-0.034-0.058-0.052-0.083
		 M30.072,27.509c-2.91,0-5.268-2.185-5.268-4.881c0-2.7,2.358-4.888,5.268-4.888c2.907,0,5.265,2.188,5.265,4.888
		C35.337,25.325,32.979,27.509,30.072,27.509z"/>
</g>
</svg>
